<svg xmlns="http://www.w3.org/2000/svg" version="1.1" xmlns:xlink="http://www.w3.org/1999/xlink" xmlns:svgjs="http://svgjs.dev/svgjs" viewBox="0 0 800 800" preserveAspectRatio="xMidYMid slice"><defs><pattern id="pppixelate-pattern" width="20" height="20" patternUnits="userSpaceOnUse" patternTransform="translate(0 0) scale(40) rotate(0)" shape-rendering="crispEdges">
    <rect width="1" height="1" x="3" y="0" fill="#1919a6"></rect><rect width="1" height="1" x="4" y="0" fill="#1919a6"></rect><rect width="1" height="1" x="5" y="0" fill="#1919a6"></rect><rect width="1" height="1" x="6" y="0" fill="#1919a6"></rect><rect width="1" height="1" x="7" y="0" fill="#1919a6"></rect><rect width="1" height="1" x="8" y="0" fill="#1919a6"></rect><rect width="1" height="1" x="9" y="0" fill="#1919a6"></rect><rect width="1" height="1" x="10" y="0" fill="#1919a6"></rect><rect width="1" height="1" x="11" y="0" fill="#1919a6"></rect><rect width="1" height="1" x="12" y="0" fill="#1919a6"></rect><rect width="1" height="1" x="13" y="0" fill="#1919a6"></rect><rect width="1" height="1" x="14" y="0" fill="#1919a6"></rect><rect width="1" height="1" x="15" y="0" fill="#1919a6"></rect><rect width="1" height="1" x="2" y="1" fill="#1919a6"></rect><rect width="1" height="1" x="16" y="1" fill="#1919a6"></rect><rect width="1" height="1" x="1" y="2" fill="#1919a6"></rect><rect width="1" height="1" x="17" y="2" fill="#1919a6"></rect><rect width="1" height="1" x="0" y="3" fill="#1919a6"></rect><rect width="1" height="1" x="18" y="3" fill="#1919a6"></rect><rect width="1" height="1" x="0" y="4" fill="#1919a6"></rect><rect width="1" height="1" x="18" y="4" fill="#1919a6"></rect><rect width="1" height="1" x="0" y="5" fill="#1919a6"></rect><rect width="1" height="1" x="18" y="5" fill="#1919a6"></rect><rect width="1" height="1" x="0" y="6" fill="#1919a6"></rect><rect width="1" height="1" x="18" y="6" fill="#1919a6"></rect><rect width="1" height="1" x="0" y="7" fill="#1919a6"></rect><rect width="1" height="1" x="18" y="7" fill="#1919a6"></rect><rect width="1" height="1" x="0" y="8" fill="#1919a6"></rect><rect width="1" height="1" x="18" y="8" fill="#1919a6"></rect><rect width="1" height="1" x="0" y="9" fill="#1919a6"></rect><rect width="1" height="1" x="18" y="9" fill="#1919a6"></rect><rect width="1" height="1" x="0" y="10" fill="#1919a6"></rect><rect width="1" height="1" x="18" y="10" fill="#1919a6"></rect><rect width="1" height="1" x="0" y="11" fill="#1919a6"></rect><rect width="1" height="1" x="18" y="11" fill="#1919a6"></rect><rect width="1" height="1" x="0" y="12" fill="#1919a6"></rect><rect width="1" height="1" x="18" y="12" fill="#1919a6"></rect><rect width="1" height="1" x="0" y="13" fill="#1919a6"></rect><rect width="1" height="1" x="18" y="13" fill="#1919a6"></rect><rect width="1" height="1" x="0" y="14" fill="#1919a6"></rect><rect width="1" height="1" x="18" y="14" fill="#1919a6"></rect><rect width="1" height="1" x="0" y="15" fill="#1919a6"></rect><rect width="1" height="1" x="18" y="15" fill="#1919a6"></rect><rect width="1" height="1" x="0" y="16" fill="#1919a6"></rect><rect width="1" height="1" x="18" y="16" fill="#1919a6"></rect><rect width="1" height="1" x="1" y="17" fill="#1919a6"></rect><rect width="1" height="1" x="17" y="17" fill="#1919a6"></rect><rect width="1" height="1" x="2" y="18" fill="#1919a6"></rect><rect width="1" height="1" x="16" y="18" fill="#1919a6"></rect><rect width="1" height="1" x="3" y="19" fill="#1919a6"></rect><rect width="1" height="1" x="4" y="19" fill="#1919a6"></rect><rect width="1" height="1" x="5" y="19" fill="#1919a6"></rect><rect width="1" height="1" x="6" y="19" fill="#1919a6"></rect><rect width="1" height="1" x="7" y="19" fill="#1919a6"></rect><rect width="1" height="1" x="8" y="19" fill="#1919a6"></rect><rect width="1" height="1" x="9" y="19" fill="#1919a6"></rect><rect width="1" height="1" x="10" y="19" fill="#1919a6"></rect><rect width="1" height="1" x="11" y="19" fill="#1919a6"></rect><rect width="1" height="1" x="12" y="19" fill="#1919a6"></rect><rect width="1" height="1" x="13" y="19" fill="#1919a6"></rect><rect width="1" height="1" x="14" y="19" fill="#1919a6"></rect><rect width="1" height="1" x="15" y="19" fill="#1919a6"></rect>
  </pattern></defs><rect width="100%" height="100%" fill="url(#pppixelate-pattern)"></rect></svg>